<svg xmlns="http://www.w3.org/2000/svg" width="80" height="80" viewBox="0 0 80 80">
  <metadata><?xpacket begin="﻿" id="W5M0MpCehiHzreSzNTczkc9d"?>
<x:xmpmeta xmlns:x="adobe:ns:meta/" x:xmptk="Adobe XMP Core 5.6-c138 79.159824, 2016/09/14-01:09:01        ">
   <rdf:RDF xmlns:rdf="http://www.w3.org/1999/02/22-rdf-syntax-ns#">
      <rdf:Description rdf:about=""/>
   </rdf:RDF>
</x:xmpmeta>
                                                                                                    
                                                                                                    
                                                                                                    
                                                                                                    
                                                                                                    
                                                                                                    
                                                                                                    
                                                                                                    
                                                                                                    
                                                                                                    
                                                                                                    
                                                                                                    
                                                                                                    
                                                                                                    
                                                                                                    
                                                                                                    
                                                                                                    
                                                                                                    
                                                                                                    
                                                                                                    
                           
<?xpacket end="w"?></metadata>
<defs>
    <style>
      .cls-1 {
        fill: #ccc;
        fill-rule: evenodd;
      }
    </style>
  </defs>
  <path id="check" class="cls-1" d="M445,282a40,40,0,1,1,40-40A40,40,0,0,1,445,282Zm0-77a37,37,0,1,0,37,37A37,37,0,0,0,445,205Zm-1.084,47.638a2.043,2.043,0,0,1-1.792,1.024,0.062,0.062,0,0,1-.064.063,2.337,2.337,0,0,1-1.792-.895l-5.76-7.553a2.3,2.3,0,0,1,.448-3.137,2.195,2.195,0,0,1,3.136.449l3.776,4.928,9.473-15.169a2.229,2.229,0,1,1,3.776,2.368Z" transform="translate(-405 -202)"/>
</svg>
