<svg xmlns="http://www.w3.org/2000/svg" width="128.719" height="35.531" viewBox="0 0 128.719 35.531">
  <defs>
    <style>
      .cls-1 {
        fill: #2a2e37;
        fill-rule: evenodd;
      }
    </style>
  </defs>
  <path id="ucs_logo" class="cls-1" d="M61.661,59.182c0,6.889-4.915,11.566-12.287,11.566C41.959,70.748,37,66.071,37,59.182V39.472h5.562V59.139c0,4.159,2.672,6.5,6.768,6.5S56.1,63.3,56.1,59.139V39.472h5.562v19.71ZM87.768,74.474H63.583V70.228H87.768v4.246Zm16.6-3.725c-9.614,0-15.822-6.975-15.822-16.028,0-8.924,6.509-15.768,15.735-15.768a16.3,16.3,0,0,1,11.3,4.2l-2.672,4.16a13.577,13.577,0,0,0-8.363-3.25c-6.726,0-10.261,4.895-10.261,10.571,0,5.761,3.665,11,10.3,11a13.089,13.089,0,0,0,8.88-3.9l2.932,4.029A16.375,16.375,0,0,1,104.364,70.748Zm38.24,3.725H118.417V70.228H142.6v4.246Zm12.933-3.725a14.9,14.9,0,0,1-10.475-4.2l3.016-4.2a12.184,12.184,0,0,0,7.589,3.248c2.759,0,4.484-1.429,4.484-3.51,0-5.849-14.272-4.634-14.272-14.207,0-5.415,4.485-8.925,10.434-8.925a13.427,13.427,0,0,1,8.966,3.293l-2.457,4.547a10.723,10.723,0,0,0-6.725-2.685c-2.8,0-4.656,1.386-4.656,3.51,0,5.718,14.269,4.245,14.269,14.036C165.71,66.632,162.091,70.748,155.537,70.748Z" transform="translate(-37 -38.938)"/>
</svg>
